#!OML:ASF F:\VICON\USERDATA\INSTALL\rory3\rory3.ASF
:FULLY-SPECIFIED
:DEGREES
11
root 0.31833000000000006 17.1965 -13.141799999999996 0.9874899999999986 0.37954400000000055 -0.930875999999998
lfemur -27.23770000000002 7.072359999999997 -26.961499999999997
ltibia 49.544000000000004
lfoot -19.343700000000034 -4.46898999999999
ltoes 6.23580000000002
rfemur -5.644380000000014 1.093310000000001 24.197800000000008
rtibia 88.73750000000004
rfoot 15.4373 -7.624319999999996
rtoes 18.499300000000012
lowerback -8.881784189112644e-10 2.3709699999999976 -0.8398939999999999
upperback 0.06380079999999988 2.963269999999999 -0.11686500000000155
thorax -9.51231 1.4499599999999997 -0.38639599999999974
lowerneck -19.2027 -5.207189999999999 -2.4017200000000005
upperneck 9.535029999999995 -7.658270000000004 8.720949999999995
head 6.477529999999999 -3.0546499999999996 2.3409199999999997
lclavicle -5.342340000000012e-15 -9.740449999999991e-15
lhumerus -54.28240000000001 -4.429170000000002 93.2634
lradius 105.005
lwrist 31.945099999999996
lhand -22.488300000000002 3.6088799999999996
lfingers 7.12502
lthumb 3.93721 33.5523
rclavicle -5.342340000000012e-15 -9.740449999999991e-15
rhumerus -45.739000000000004 11.2455 -99.6464
rradius 98.4876
rwrist -14.884500000000001
rhand -16.6045 -8.881784189112644e-10
rfingers 7.12502
rthumb 9.61696 7.494679999999995
12
root 0.28959400000000013 16.9415 -11.374199999999998 2.070630000000001 0.3495070000000038 0.7899169999999969
lfemur -20.67150000000001 5.017200000000004 -28.413700000000002
ltibia 50.58120000000001
lfoot -27.142999999999986 0.543482999999993
ltoes 8.935790000000011
rfemur -19.175200000000004 -2.0097200000000095 19.8705
rtibia 100.02500000000009
rfoot 12.149399999999991 -4.503970000000002
rtoes 21.612400000000036
lowerback -8.881784189112644e-10 1.942949999999999 -3.060159999999991
upperback -0.060719600000000984 1.8850499999999997 -0.5704719999999992
thorax -10.0614 1.0313499999999995 0.6276229999999997
lowerneck -20.0026 -5.070779999999998 -2.5293
upperneck 9.321479999999992 -7.469350000000002 9.05415
head 6.549110000000001 -2.924999999999998 2.4799900000000012
lclavicle -4.944769999999991e-15 1.3119800000000035e-14
lhumerus -46.498 -9.0633 93.9032
lradius 104.99500000000002
lwrist 32.5767
lhand -20.9101 5.348860000000004
lfingers 7.12502
lthumb 5.46112 35.2585
rclavicle -4.944769999999991e-15 1.3119800000000035e-14
rhumerus -49.7263 8.624429999999997 -99.1846
rradius 96.78509999999999
rwrist -13.849500000000003
rhand -16.1657 -8.881784189112644e-10
rfingers 7.12502
rthumb 10.0403 7.34019
13
root 0.31475100000000006 17.0136 -9.483610000000017 3.1664899999999996 0.020358499999997726 1.024839999999993
lfemur -12.858000000000008 4.020069999999997 -28.645400000000013
ltibia 45.897500000000015
lfoot -26.791799999999967 3.7816600000000182
ltoes -2.5078600000000097
rfemur -31.25240000000002 -3.7513200000000113 19.235300000000006
rtibia 102.889
rfoot 8.888860000000005 -2.8172099999999975
rtoes 12.39969999999999
lowerback -8.881784189112644e-10 1.1021699999999996 -3.588660000000007
upperback -0.40389899999999845 0.7339789999999988 -0.22235400000000194
thorax -9.86624 0.5242140000000002 1.6144200000000004
lowerneck -18.9191 -4.559220000000001 -3.0271800000000004
upperneck 9.179379999999993 -6.656070000000001 9.101150000000006
head 6.295399999999999 -2.5846399999999994 2.6872500000000024
lclavicle -3.379339999999999e-15 -1.0038599999999986e-14
lhumerus -41.3639 -10.6506 94.409
lradius 108.76100000000001
lwrist 29.955099999999998
lhand -24.224100000000004 3.9198900000000014
lfingers 7.12502
lthumb 2.2609500000000073 33.8877
rclavicle -3.379339999999999e-15 -1.0038599999999986e-14
rhumerus -55.07110000000001 8.396980000000003 -98.761
rradius 100.08300000000003
rwrist -16.465300000000003
rhand -15.049399999999999 -8.881784189112644e-10
rfingers 7.12502
rthumb 11.117100000000002 9.08184
14
root 0.32406299999999977 17.2985 -7.567870000000027 4.576700000000004 0.9915420000000044 0.6390860000000034
lfemur -5.661799999999994 1.1618900000000028 -27.915200000000002
ltibia 41.37689999999997
lfoot -20.343900000000026 3.00413000000003
ltoes -16.9787
rfemur -41.03140000000002 -5.116160000000011 21.264600000000016
rtibia 98.30499999999996
rfoot 2.82979 -3.700080000000001
rtoes 0.4833369999999998
lowerback -8.881784189112644e-10 -0.4769639999999993 -3.0210499999999945
upperback -0.6293459999999995 -1.1806700000000017 0.22102900000000192
thorax -9.53646 -0.40743600000000146 2.233579999999998
lowerneck -20.5967 -3.89291 -2.2798900000000004
upperneck 10.346300000000003 -5.90209 8.234299999999998
head 6.84339 -2.19083 2.3582499999999995
lclavicle 7.056859999999991e-15 -4.075089999999998e-15
lhumerus -37.095900000000015 -10.5667 93.3882
lradius 114.781
lwrist 36.361999999999995
lhand -21.3201 3.43214
lfingers 7.12502
lthumb 5.065270000000002 33.3516
rclavicle 7.056859999999991e-15 -4.075089999999998e-15
rhumerus -58.30659999999999 8.965610000000002 -98.6127
rradius 103.46499999999999
rwrist -16.9343
rhand -15.004299999999997 -8.881784189112644e-10
rfingers 7.12502
rthumb 11.160600000000002 8.54568
15
root 0.34010300000000027 17.7544 -5.462439999999982 4.553250000000003 -1.4984000000000002 0.4183030000000043
lfemur 3.829650000000024 1.6705500000000009 -27.558699999999995
ltibia 34.32040000000002
lfoot -7.5626700000000024 -4.786149999999998
ltoes -24.38200000000002
rfemur -44.605800000000045 -2.0411600000000076 22.718700000000013
rtibia 86.85310000000003
rfoot 1.756960000000003 -3.7708599999999985
rtoes 7.006100000000016
lowerback -8.881784189112644e-10 -0.8012329999999972 -3.339400000000012
upperback -0.8185540000000003 -1.5896800000000073 0.7563389999999991
thorax -9.129 -0.5809549999999986 3.0640200000000046
lowerneck -20.505 -3.319730000000001 -2.2231600000000005
upperneck 11.209500000000002 -5.078420000000002 7.442349999999998
head 7.03477 -1.8469300000000002 2.1930199999999997
lclavicle 1.6350000000000017e-14 -8.485619999999994e-15
lhumerus -35.722100000000026 -10.392 92.759
lradius 119.65199999999999
lwrist 37.767799999999994
lhand -21.3819 2.1764800000000006
lfingers 7.12502
lthumb 5.005639999999998 32.0974
rclavicle 1.6350000000000017e-14 -8.485619999999994e-15
rhumerus -61.68130000000002 8.733219999999996 -97.7867
rradius 105.346
rwrist -16.4533
rhand -14.407600000000002 -8.881784189112644e-10
rfingers 7.12502
rthumb 11.736100000000002 9.17026
